#!OML:ASF E:\CV Data\Top Level 1\Subject 1\Session 1\player.ASF
:FULLY-SPECIFIED
:DEGREES
1618
root 6.87252 17.826 -3.18561 14.1478 -43.5593 -3.20482
lowerback 4.8657 4.28582 0.641404
upperback -1.31837 5.86295 2.79601
thorax -4.31621 2.92782 2.02386
lowerneck -18.1583 -2.1765 -8.28947
upperneck 13.2845 -1.36414 3.20632
head 7.12895 -0.787674 2.23865
rclavicle 1.08139e-013 -1.59028e-015
rhumerus -18.1273 -21.4848 -81.5234
rradius 20.3475
rwrist -8.32125
rhand -23.9964 -0.812435
rfingers 7.12502
rthumb 2.48087 -30.7778
lclavicle 1.08139e-013 -1.59028e-015
lhumerus -33.8469 -9.32931 91.323
lradius 55.1025
lwrist 16.0593
lhand -22.535 13.4614
lfingers 7.12502
lthumb 3.89212 43.4056
rfemur -6.31897 -5.58265 17.0059
rtibia 15.2499
rfoot -16.6353 -24.7122
rtoes 3.10382
lfemur -25.144 2.67335 -16.8679
ltibia 19.9727
lfoot -2.9312 1.42269
ltoes 1.90521
1619
root 6.86566 17.8247 -3.20366 14.0737 -43.6626 -3.17956
lowerback 4.85872 4.29745 0.644629
upperback -1.31634 5.878 2.78465
thorax -4.30914 2.93507 2.00969
lowerneck -18.1448 -2.14347 -8.26534
upperneck 13.2836 -1.31415 3.1325
head 7.12284 -0.769509 2.21605
rclavicle 4.19436e-014 4.13472e-014
rhumerus -18.0156 -20.8549 -81.8212
rradius 20.4443
rwrist -8.18155
rhand -23.9191 -0.591111
rfingers 7.12502
rthumb 2.55545 -30.5555
lclavicle 4.19436e-014 4.13472e-014
lhumerus -33.8678 -9.27593 91.2822
lradius 55.1074
lwrist 16.0469
lhand -22.5106 13.4406
lfingers 7.12502
lthumb 3.91569 43.3844
rfemur -6.41863 -5.6285 17.0206
rtibia 15.4748
rfoot -16.7543 -24.5651
rtoes 3.26123
lfemur -25.079 2.75311 -16.8355
ltibia 19.9417
lfoot -2.89516 1.44232
ltoes 1.80385
1620
root 6.85837 17.8231 -3.22218 13.9894 -43.7658 -3.1519
lowerback 4.85703 4.31021 0.643613
upperback -1.31319 5.8944 2.77328
thorax -4.30436 2.9431 1.99734
lowerneck -18.1065 -2.11338 -8.23641
upperneck 13.2659 -1.2695 3.04648
head 7.10737 -0.754649 2.18797
rclavicle 3.10104e-014 -1.03368e-014
rhumerus -17.9202 -20.1858 -82.1261
rradius 20.5806
rwrist -8.11752
rhand -23.8513 -0.363193
rfingers 7.12502
rthumb 2.62101 -30.3268
lclavicle 3.10104e-014 -1.03368e-014
lhumerus -33.8869 -9.21547 91.2412
lradius 55.1096
lwrist 16.0535
lhand -22.4826 13.445
lfingers 7.12502
lthumb 3.94279 43.3882
rfemur -6.52014 -5.68994 17.0339
rtibia 15.7203
rfoot -16.8682 -24.4035
rtoes 3.37297
lfemur -25.0051 2.83053 -16.8012
ltibia 19.9123
lfoot -2.86021 1.46467
ltoes 1.70614
1621
root 6.85071 17.8212 -3.24115 13.8888 -43.8665 -3.11536
lowerback 4.8598 4.32116 0.635253
upperback -1.30771 5.90797 2.76184
thorax -4.30029 2.9499 1.98898
lowerneck -18.069 -2.08072 -8.19575
upperneck 13.2552 -1.22227 2.94806
head 7.09407 -0.739209 2.15424
rclavicle 6.14245e-014 5.56597e-015
rhumerus -17.8409 -19.4673 -82.4399
rradius 20.7617
rwrist -8.12529
rhand -23.7981 -0.147776
rfingers 7.12502
rthumb 2.67238 -30.1108
lclavicle 6.14245e-014 5.56597e-015
lhumerus -33.9019 -9.15349 91.2012
lradius 55.1053
lwrist 16.0851
lhand -22.4554 13.4636
lfingers 7.12502
lthumb 3.96901 43.4064
rfemur -6.62279 -5.76842 17.0411
rtibia 15.9884
rfoot -16.9721 -24.2328
rtoes 3.4209
lfemur -24.9208 2.89083 -16.7678
ltibia 19.8866
lfoot -2.82706 1.50055
ltoes 1.59928
1622
root 6.84264 17.819 -3.26095 13.7763 -43.9616 -3.07271
lowerback 4.86606 4.33136 0.626436
upperback -1.29855 5.92023 2.74421
thorax -4.29369 2.95598 1.9745
lowerneck -18.0338 -2.04928 -8.14474
upperneck 13.2492 -1.1794 2.85118
head 7.08298 -0.725226 2.11889
rclavicle 0 3.10104e-014
rhumerus -17.774 -18.5944 -82.8102
rradius 21.0246
rwrist -8.4054
rhand -23.9029 -0.00155009
rfingers 7.12502
rthumb 2.57113 -29.9658
lclavicle 0 3.10104e-014
lhumerus -33.9104 -9.09688 91.1527
lradius 55.1035
lwrist 16.1404
lhand -22.4468 13.4732
lfingers 7.12502
lthumb 3.97732 43.4158
rfemur -6.72978 -5.86046 17.0468
rtibia 16.2783
rfoot -17.0645 -24.0622
rtoes 3.39572
lfemur -24.831 2.95646 -16.7376
ltibia 19.864
lfoot -2.79704 1.52453
ltoes 1.50064
1623
root 6.83426 17.8165 -3.28158 13.655 -44.046 -3.02497
lowerback 4.87736 4.33639 0.606332
upperback -1.29376 5.92545 2.7339
thorax -4.29618 2.95894 1.97378
lowerneck -18.0009 -2.01214 -8.10416
upperneck 13.2649 -1.1279 2.76545
head 7.07905 -0.706996 2.09003
rclavicle 3.91606e-014 7.95139e-015
rhumerus -17.738 -17.5606 -83.2113
rradius 21.3694
rwrist -8.90678
rhand -24.1394 0.083435
rfingers 7.12502
rthumb 2.3427 -29.8834
lclavicle 3.91606e-014 7.95139e-015
lhumerus -33.9331 -9.01951 91.1119
lradius 55.1079
lwrist 16.2059
lhand -22.4708 13.4671
lfingers 7.12502
lthumb 3.95418 43.4101
rfemur -6.843 -5.96421 17.0531
rtibia 16.5895
rfoot -17.15 -23.8967
rtoes 3.31492
lfemur -24.7403 3.03 -16.7115
ltibia 19.8441
lfoot -2.77133 1.52853
ltoes 1.39565
1624
root 6.8256 17.814 -3.30299 13.531 -44.1178 -2.97697
lowerback 4.89061 4.34138 0.587541
upperback -1.28865 5.93063 2.72095
thorax -4.29902 2.96182 1.96949
lowerneck -18.0005 -1.97578 -8.06114
upperneck 13.3166 -1.07801 2.69632
head 7.09256 -0.688368 2.06624
rclavicle 6.52014e-014 -2.8625e-014
rhumerus -17.7237 -16.5151 -83.6117
rradius 21.7623
rwrist -9.33753
rhand -24.3625 0.144457
rfingers 7.12502
rthumb 2.12729 -29.8247
lclavicle 6.52014e-014 -2.8625e-014
lhumerus -33.9485 -8.95182 91.0674
lradius 55.1156
lwrist 16.2868
lhand -22.4807 13.4816
lfingers 7.12502
lthumb 3.94462 43.4249
rfemur -6.96391 -6.07925 17.0645
rtibia 16.9201
rfoot -17.2349 -23.7356
rtoes 3.20648
lfemur -24.6486 3.0681 -16.6742
ltibia 19.8246
lfoot -2.74346 1.55232
ltoes 1.2712
1625
root 6.81643 17.8115 -3.32537 13.4101 -44.1838 -2.93349
lowerback 4.90174 4.34659 0.570258
upperback -1.28285 5.93609 2.70709
thorax -4.2997 2.96479 1.96361
lowerneck -17.9566 -1.94413 -8.06356
upperneck 13.3416 -1.03511 2.67606
head 7.09095 -0.670604 2.06502
rclavicle -3.89618e-014 1.43125e-014
rhumerus -17.7276 -15.4971 -84.0016
rradius 22.1859
rwrist -9.62028
rhand -24.5378 0.241195
rfingers 7.12502
rthumb 1.95795 -29.7296
lclavicle -3.89618e-014 1.43125e-014
lhumerus -33.9575 -8.89255 91.0193
lradius 55.1267
lwrist 16.3821
lhand -22.4851 13.4994
lfingers 7.12502
lthumb 3.94032 43.4427
rfemur -7.09153 -6.18999 17.0849
rtibia 17.2628
rfoot -17.3238 -23.5844
rtoes 3.09637
lfemur -24.5593 3.11115 -16.632
ltibia 19.806
lfoot -2.71828 1.56552
ltoes 1.10268
1626
root 6.8069 17.809 -3.34828 13.2951 -44.2355 -2.8977
lowerback 4.91415 4.35003 0.555772
upperback -1.28014 5.93965 2.69745
thorax -4.30442 2.96679 1.96047
lowerneck -17.9204 -1.91509 -8.08019
upperneck 13.3897 -0.994372 2.67279
head 7.09846 -0.653456 2.07158
rclavicle 4.25399e-014 1.03368e-014
rhumerus -17.7558 -14.5473 -84.3557
rradius 22.629
rwrist -9.66561
rhand -24.5891 0.398493
rfingers 7.12502
rthumb 1.90846 -29.5727
lclavicle 4.25399e-014 1.03368e-014
lhumerus -33.9677 -8.83222 90.9755
lradius 55.1454
lwrist 16.4799
lhand -22.453 13.5571
lfingers 7.12502
lthumb 3.97133 43.4999
rfemur -7.22035 -6.30504 17.1171
rtibia 17.6101
rfoot -17.422 -23.4382
rtoes 3.01515
lfemur -24.4734 3.12748 -16.5736
ltibia 19.787
lfoot -2.68858 1.59091
ltoes 0.948251
